<svg width="440" height="472" viewBox="0 0 440 472" fill="none" xmlns="http://www.w3.org/2000/svg">
<path d="M275.316 73.1309C277.121 73.1309 278.65 73.4531 279.904 74.0977C281.17 74.7422 282.119 75.6445 282.752 76.8047C283.396 77.9648 283.719 79.3125 283.719 80.8477V88.2832C283.719 89.7715 283.408 91.1016 282.787 92.2734C282.166 93.4336 281.223 94.3477 279.957 95.0156C278.703 95.6719 277.156 96 275.316 96H267.652V73.1309H275.316ZM275.316 90.3574C276.043 90.3457 276.588 90.1582 276.951 89.7949C277.326 89.4199 277.514 88.9219 277.514 88.3008V80.8301C277.514 80.209 277.326 79.7168 276.951 79.3535C276.588 78.9785 276.043 78.7852 275.316 78.7734H273.857V90.3574H275.316ZM295.215 96.3867C293.387 96.3867 291.84 96.0645 290.574 95.4199C289.309 94.7637 288.354 93.8555 287.709 92.6953C287.076 91.5352 286.76 90.1934 286.76 88.6699V73.1309H292.965V88.5293C292.965 89.1621 293.152 89.666 293.527 90.041C293.902 90.4043 294.465 90.5859 295.215 90.5859C295.965 90.5859 296.527 90.4043 296.902 90.041C297.277 89.666 297.465 89.1621 297.465 88.5293V73.1309H303.67V88.6699C303.67 90.1465 303.359 91.4648 302.738 92.625C302.129 93.7852 301.191 94.7051 299.926 95.3848C298.66 96.0527 297.09 96.3867 295.215 96.3867ZM316.625 73.1309C318.992 73.1309 320.762 73.8105 321.934 75.1699C323.105 76.5293 323.691 78.4277 323.691 80.8652C323.691 81.9434 323.609 82.8398 323.445 83.5547C323.281 84.2578 323.012 84.8789 322.637 85.418C322.262 85.957 321.734 86.5254 321.055 87.123L324.816 96H317.75L314.691 88.5996H313.83V96H307.625V73.1309H316.625ZM315.43 82.957C316.66 82.957 317.275 82.2598 317.275 80.8652C317.275 80.1504 317.123 79.623 316.818 79.2832C316.514 78.9434 316.051 78.7734 315.43 78.7734H313.83V82.957H315.43ZM330.775 73.1309H336.945L343.344 96H337.068L336.277 92.7305H331.461L330.652 96H324.377L330.775 73.1309ZM335.047 87.6504L334.15 83.748L333.852 81.9023L333.553 83.748L332.674 87.6504H335.047ZM345.348 87.6152L339.02 73.1309H345.77L348.055 79.6348L348.459 81.1289L348.846 79.6348L351.113 73.1309H357.881L351.553 87.6152V96H345.348V87.6152ZM226.309 115.131H233.393L236.188 125.994L236.574 127.787L236.943 125.994L239.598 115.131H246.84V138H240.811V132.41L240.986 127.664L237.998 138H235.062L232.145 127.664L232.32 132.41V138H226.309V115.131ZM254.838 115.131H261.008L267.406 138H261.131L260.34 134.73H255.523L254.715 138H248.439L254.838 115.131ZM259.109 129.65L258.213 125.748L257.914 123.902L257.615 125.748L256.736 129.65H259.109ZM277.496 138.387C275.668 138.387 274.121 138.064 272.855 137.42C271.59 136.764 270.635 135.855 269.99 134.695C269.357 133.535 269.041 132.193 269.041 130.67V115.131H275.246V130.529C275.246 131.162 275.434 131.666 275.809 132.041C276.184 132.404 276.746 132.586 277.496 132.586C278.246 132.586 278.809 132.404 279.184 132.041C279.559 131.666 279.746 131.162 279.746 130.529V115.131H285.951V130.67C285.951 132.146 285.641 133.465 285.02 134.625C284.41 135.785 283.473 136.705 282.207 137.385C280.941 138.053 279.371 138.387 277.496 138.387ZM298.906 115.131C301.273 115.131 303.043 115.811 304.215 117.17C305.387 118.529 305.973 120.428 305.973 122.865C305.973 123.943 305.891 124.84 305.727 125.555C305.562 126.258 305.293 126.879 304.918 127.418C304.543 127.957 304.016 128.525 303.336 129.123L307.098 138H300.031L296.973 130.6H296.111V138H289.906V115.131H298.906ZM297.711 124.957C298.941 124.957 299.557 124.26 299.557 122.865C299.557 122.15 299.404 121.623 299.1 121.283C298.795 120.943 298.332 120.773 297.711 120.773H296.111V124.957H297.711ZM309.348 115.131H315.535V138H309.348V115.131ZM319.754 115.131H325.537L330.67 126.381L330.406 123.217V115.131H336.611V138H330.828L325.695 126.732L325.959 129.896V138H319.754V115.131ZM340.988 115.131H354.945V120.773H347.193V124.342H353.82V128.842H347.193V132.357H354.945V138H340.988V115.131ZM206.715 208.352C205.629 208.352 204.668 208.129 203.832 207.684C203.004 207.238 202.363 206.637 201.91 205.879C201.457 205.121 201.23 204.285 201.23 203.371V195.648C201.23 194.742 201.453 193.91 201.898 193.152C202.352 192.387 202.992 191.781 203.82 191.336C204.656 190.883 205.621 190.656 206.715 190.656C207.801 190.656 208.758 190.879 209.586 191.324C210.422 191.77 211.066 192.375 211.52 193.141C211.973 193.898 212.199 194.734 212.199 195.648V203.371C212.199 204.277 211.973 205.109 211.52 205.867C211.074 206.625 210.434 207.23 209.598 207.684C208.77 208.129 207.809 208.352 206.715 208.352ZM206.715 207.285C207.582 207.285 208.344 207.105 209 206.746C209.656 206.379 210.16 205.895 210.512 205.293C210.863 204.691 211.043 204.051 211.051 203.371V195.648C211.043 194.969 210.863 194.328 210.512 193.727C210.16 193.125 209.656 192.641 209 192.273C208.344 191.906 207.582 191.723 206.715 191.723C205.848 191.723 205.082 191.906 204.418 192.273C203.762 192.641 203.258 193.125 202.906 193.727C202.555 194.328 202.379 194.969 202.379 195.648V203.371C202.379 204.051 202.555 204.691 202.906 205.293C203.258 205.887 203.762 206.367 204.418 206.734C205.074 207.102 205.84 207.285 206.715 207.285ZM223.73 203.863H215.422V202.844L223.555 191.02H224.809L216.711 202.832H223.789V198.039H224.832V202.832H226.391V203.863H224.832V208H223.73V203.863ZM236.598 200.008C235.809 200.516 234.875 200.77 233.797 200.77C232.836 200.77 231.961 200.574 231.172 200.184C230.383 199.785 229.758 199.207 229.297 198.449C228.836 197.684 228.605 196.781 228.605 195.742C228.605 194.688 228.844 193.777 229.32 193.012C229.797 192.246 230.445 191.664 231.266 191.266C232.086 190.859 233.004 190.656 234.02 190.656C235.027 190.656 235.941 190.855 236.762 191.254C237.59 191.652 238.242 192.238 238.719 193.012C239.203 193.777 239.445 194.688 239.445 195.742C239.445 196.805 239.188 197.754 238.672 198.59L232.953 208H231.676L236.598 200.008ZM234.02 199.785C234.801 199.785 235.516 199.621 236.164 199.293C236.812 198.965 237.328 198.496 237.711 197.887C238.094 197.277 238.285 196.566 238.285 195.754C238.285 194.941 238.094 194.23 237.711 193.621C237.336 193.012 236.824 192.543 236.176 192.215C235.527 191.887 234.809 191.723 234.02 191.723C233.238 191.723 232.523 191.887 231.875 192.215C231.227 192.543 230.711 193.012 230.328 193.621C229.953 194.23 229.766 194.941 229.766 195.754C229.766 196.566 229.953 197.277 230.328 197.887C230.711 198.496 231.227 198.965 231.875 199.293C232.523 199.621 233.238 199.785 234.02 199.785ZM248.621 208.352C247.543 208.352 246.59 208.137 245.762 207.707C244.941 207.277 244.309 206.695 243.863 205.961C243.418 205.219 243.195 204.398 243.195 203.5C243.195 202.359 243.477 201.41 244.039 200.652C244.609 199.895 245.379 199.371 246.348 199.082C245.535 198.801 244.891 198.32 244.414 197.641C243.938 196.961 243.699 196.117 243.699 195.109C243.699 194.289 243.898 193.543 244.297 192.871C244.703 192.191 245.277 191.652 246.02 191.254C246.77 190.855 247.637 190.656 248.621 190.656C249.605 190.656 250.469 190.855 251.211 191.254C251.953 191.645 252.523 192.18 252.922 192.859C253.328 193.539 253.531 194.289 253.531 195.109C253.531 196.117 253.293 196.961 252.816 197.641C252.34 198.32 251.699 198.801 250.895 199.082C251.855 199.371 252.621 199.898 253.191 200.664C253.762 201.422 254.047 202.367 254.047 203.5C254.047 204.383 253.828 205.195 253.391 205.938C252.953 206.672 252.324 207.258 251.504 207.695C250.684 208.133 249.723 208.352 248.621 208.352ZM248.621 198.625C249.348 198.625 249.996 198.5 250.566 198.25C251.145 197.992 251.598 197.602 251.926 197.078C252.262 196.547 252.43 195.895 252.43 195.121C252.43 194.441 252.254 193.84 251.902 193.316C251.559 192.785 251.094 192.375 250.508 192.086C249.93 191.789 249.301 191.641 248.621 191.641C247.91 191.641 247.262 191.793 246.676 192.098C246.098 192.395 245.641 192.809 245.305 193.34C244.969 193.871 244.801 194.465 244.801 195.121C244.801 195.879 244.961 196.52 245.281 197.043C245.609 197.566 246.059 197.961 246.629 198.227C247.207 198.492 247.871 198.625 248.621 198.625ZM248.621 207.32C249.387 207.32 250.094 207.16 250.742 206.84C251.398 206.52 251.918 206.07 252.301 205.492C252.691 204.906 252.887 204.242 252.887 203.5C252.887 202.672 252.703 201.973 252.336 201.402C251.977 200.824 251.477 200.391 250.836 200.102C250.195 199.812 249.457 199.668 248.621 199.668C247.801 199.668 247.07 199.809 246.43 200.09C245.789 200.371 245.281 200.801 244.906 201.379C244.539 201.949 244.355 202.656 244.355 203.5C244.355 204.25 244.551 204.918 244.941 205.504C245.332 206.082 245.852 206.531 246.5 206.852C247.156 207.164 247.863 207.32 248.621 207.32ZM264.359 190.656H265.203L256.941 208.352H256.098L264.359 190.656ZM273.23 208.352C272.145 208.352 271.184 208.129 270.348 207.684C269.52 207.238 268.879 206.637 268.426 205.879C267.973 205.121 267.746 204.285 267.746 203.371V195.648C267.746 194.742 267.969 193.91 268.414 193.152C268.867 192.387 269.508 191.781 270.336 191.336C271.172 190.883 272.137 190.656 273.23 190.656C274.316 190.656 275.273 190.879 276.102 191.324C276.938 191.77 277.582 192.375 278.035 193.141C278.488 193.898 278.715 194.734 278.715 195.648V203.371C278.715 204.277 278.488 205.109 278.035 205.867C277.59 206.625 276.949 207.23 276.113 207.684C275.285 208.129 274.324 208.352 273.23 208.352ZM273.23 207.285C274.098 207.285 274.859 207.105 275.516 206.746C276.172 206.379 276.676 205.895 277.027 205.293C277.379 204.691 277.559 204.051 277.566 203.371V195.648C277.559 194.969 277.379 194.328 277.027 193.727C276.676 193.125 276.172 192.641 275.516 192.273C274.859 191.906 274.098 191.723 273.23 191.723C272.363 191.723 271.598 191.906 270.934 192.273C270.277 192.641 269.773 193.125 269.422 193.727C269.07 194.328 268.895 194.969 268.895 195.648V203.371C268.895 204.051 269.07 204.691 269.422 205.293C269.773 205.887 270.277 206.367 270.934 206.734C271.59 207.102 272.355 207.285 273.23 207.285ZM288.723 208.352C287.645 208.352 286.691 208.137 285.863 207.707C285.043 207.277 284.41 206.695 283.965 205.961C283.52 205.219 283.297 204.398 283.297 203.5C283.297 202.359 283.578 201.41 284.141 200.652C284.711 199.895 285.48 199.371 286.449 199.082C285.637 198.801 284.992 198.32 284.516 197.641C284.039 196.961 283.801 196.117 283.801 195.109C283.801 194.289 284 193.543 284.398 192.871C284.805 192.191 285.379 191.652 286.121 191.254C286.871 190.855 287.738 190.656 288.723 190.656C289.707 190.656 290.57 190.855 291.312 191.254C292.055 191.645 292.625 192.18 293.023 192.859C293.43 193.539 293.633 194.289 293.633 195.109C293.633 196.117 293.395 196.961 292.918 197.641C292.441 198.32 291.801 198.801 290.996 199.082C291.957 199.371 292.723 199.898 293.293 200.664C293.863 201.422 294.148 202.367 294.148 203.5C294.148 204.383 293.93 205.195 293.492 205.938C293.055 206.672 292.426 207.258 291.605 207.695C290.785 208.133 289.824 208.352 288.723 208.352ZM288.723 198.625C289.449 198.625 290.098 198.5 290.668 198.25C291.246 197.992 291.699 197.602 292.027 197.078C292.363 196.547 292.531 195.895 292.531 195.121C292.531 194.441 292.355 193.84 292.004 193.316C291.66 192.785 291.195 192.375 290.609 192.086C290.031 191.789 289.402 191.641 288.723 191.641C288.012 191.641 287.363 191.793 286.777 192.098C286.199 192.395 285.742 192.809 285.406 193.34C285.07 193.871 284.902 194.465 284.902 195.121C284.902 195.879 285.062 196.52 285.383 197.043C285.711 197.566 286.16 197.961 286.73 198.227C287.309 198.492 287.973 198.625 288.723 198.625ZM288.723 207.32C289.488 207.32 290.195 207.16 290.844 206.84C291.5 206.52 292.02 206.07 292.402 205.492C292.793 204.906 292.988 204.242 292.988 203.5C292.988 202.672 292.805 201.973 292.438 201.402C292.078 200.824 291.578 200.391 290.938 200.102C290.297 199.812 289.559 199.668 288.723 199.668C287.902 199.668 287.172 199.809 286.531 200.09C285.891 200.371 285.383 200.801 285.008 201.379C284.641 201.949 284.457 202.656 284.457 203.5C284.457 204.25 284.652 204.918 285.043 205.504C285.434 206.082 285.953 206.531 286.602 206.852C287.258 207.164 287.965 207.32 288.723 207.32ZM297.992 208.352C297.711 208.352 297.48 208.262 297.301 208.082C297.129 207.91 297.043 207.688 297.043 207.414C297.043 207.148 297.133 206.93 297.312 206.758C297.492 206.578 297.719 206.488 297.992 206.488C298.266 206.488 298.488 206.578 298.66 206.758C298.84 206.93 298.93 207.148 298.93 207.414C298.93 207.688 298.844 207.91 298.672 208.082C298.5 208.262 298.273 208.352 297.992 208.352ZM307.918 208.352C306.84 208.352 305.887 208.137 305.059 207.707C304.238 207.277 303.605 206.695 303.16 205.961C302.715 205.219 302.492 204.398 302.492 203.5C302.492 202.359 302.773 201.41 303.336 200.652C303.906 199.895 304.676 199.371 305.645 199.082C304.832 198.801 304.188 198.32 303.711 197.641C303.234 196.961 302.996 196.117 302.996 195.109C302.996 194.289 303.195 193.543 303.594 192.871C304 192.191 304.574 191.652 305.316 191.254C306.066 190.855 306.934 190.656 307.918 190.656C308.902 190.656 309.766 190.855 310.508 191.254C311.25 191.645 311.82 192.18 312.219 192.859C312.625 193.539 312.828 194.289 312.828 195.109C312.828 196.117 312.59 196.961 312.113 197.641C311.637 198.32 310.996 198.801 310.191 199.082C311.152 199.371 311.918 199.898 312.488 200.664C313.059 201.422 313.344 202.367 313.344 203.5C313.344 204.383 313.125 205.195 312.688 205.938C312.25 206.672 311.621 207.258 310.801 207.695C309.98 208.133 309.02 208.352 307.918 208.352ZM307.918 198.625C308.645 198.625 309.293 198.5 309.863 198.25C310.441 197.992 310.895 197.602 311.223 197.078C311.559 196.547 311.727 195.895 311.727 195.121C311.727 194.441 311.551 193.84 311.199 193.316C310.855 192.785 310.391 192.375 309.805 192.086C309.227 191.789 308.598 191.641 307.918 191.641C307.207 191.641 306.559 191.793 305.973 192.098C305.395 192.395 304.938 192.809 304.602 193.34C304.266 193.871 304.098 194.465 304.098 195.121C304.098 195.879 304.258 196.52 304.578 197.043C304.906 197.566 305.355 197.961 305.926 198.227C306.504 198.492 307.168 198.625 307.918 198.625ZM307.918 207.32C308.684 207.32 309.391 207.16 310.039 206.84C310.695 206.52 311.215 206.07 311.598 205.492C311.988 204.906 312.184 204.242 312.184 203.5C312.184 202.672 312 201.973 311.633 201.402C311.273 200.824 310.773 200.391 310.133 200.102C309.492 199.812 308.754 199.668 307.918 199.668C307.098 199.668 306.367 199.809 305.727 200.09C305.086 200.371 304.578 200.801 304.203 201.379C303.836 201.949 303.652 202.656 303.652 203.5C303.652 204.25 303.848 204.918 304.238 205.504C304.629 206.082 305.148 206.531 305.797 206.852C306.453 207.164 307.16 207.32 307.918 207.32ZM322.449 208.352C321.441 208.352 320.523 208.152 319.695 207.754C318.875 207.355 318.223 206.773 317.738 206.008C317.262 205.234 317.023 204.32 317.023 203.266C317.023 202.195 317.281 201.246 317.797 200.418L323.516 191.02H324.793L319.871 199C320.676 198.492 321.613 198.238 322.684 198.238C323.645 198.238 324.516 198.438 325.297 198.836C326.086 199.227 326.711 199.801 327.172 200.559C327.633 201.316 327.863 202.219 327.863 203.266C327.863 204.32 327.625 205.23 327.148 205.996C326.672 206.762 326.023 207.348 325.203 207.754C324.383 208.152 323.465 208.352 322.449 208.352ZM322.449 207.285C323.23 207.285 323.945 207.121 324.594 206.793C325.242 206.465 325.754 205.996 326.129 205.387C326.512 204.777 326.703 204.066 326.703 203.254C326.703 202.441 326.512 201.73 326.129 201.121C325.754 200.512 325.242 200.043 324.594 199.715C323.945 199.387 323.23 199.223 322.449 199.223C321.652 199.223 320.93 199.391 320.281 199.727C319.633 200.055 319.121 200.523 318.746 201.133C318.371 201.742 318.184 202.449 318.184 203.254C318.184 204.066 318.371 204.777 318.746 205.387C319.129 205.996 319.645 206.465 320.293 206.793C320.941 207.121 321.66 207.285 322.449 207.285ZM330.992 208.352C330.711 208.352 330.48 208.262 330.301 208.082C330.129 207.91 330.043 207.688 330.043 207.414C330.043 207.148 330.133 206.93 330.312 206.758C330.492 206.578 330.719 206.488 330.992 206.488C331.266 206.488 331.488 206.578 331.66 206.758C331.84 206.93 331.93 207.148 331.93 207.414C331.93 207.688 331.844 207.91 331.672 208.082C331.5 208.262 331.273 208.352 330.992 208.352ZM340.918 208.352C339.84 208.352 338.887 208.137 338.059 207.707C337.238 207.277 336.605 206.695 336.16 205.961C335.715 205.219 335.492 204.398 335.492 203.5C335.492 202.359 335.773 201.41 336.336 200.652C336.906 199.895 337.676 199.371 338.645 199.082C337.832 198.801 337.188 198.32 336.711 197.641C336.234 196.961 335.996 196.117 335.996 195.109C335.996 194.289 336.195 193.543 336.594 192.871C337 192.191 337.574 191.652 338.316 191.254C339.066 190.855 339.934 190.656 340.918 190.656C341.902 190.656 342.766 190.855 343.508 191.254C344.25 191.645 344.82 192.18 345.219 192.859C345.625 193.539 345.828 194.289 345.828 195.109C345.828 196.117 345.59 196.961 345.113 197.641C344.637 198.32 343.996 198.801 343.191 199.082C344.152 199.371 344.918 199.898 345.488 200.664C346.059 201.422 346.344 202.367 346.344 203.5C346.344 204.383 346.125 205.195 345.688 205.938C345.25 206.672 344.621 207.258 343.801 207.695C342.98 208.133 342.02 208.352 340.918 208.352ZM340.918 198.625C341.645 198.625 342.293 198.5 342.863 198.25C343.441 197.992 343.895 197.602 344.223 197.078C344.559 196.547 344.727 195.895 344.727 195.121C344.727 194.441 344.551 193.84 344.199 193.316C343.855 192.785 343.391 192.375 342.805 192.086C342.227 191.789 341.598 191.641 340.918 191.641C340.207 191.641 339.559 191.793 338.973 192.098C338.395 192.395 337.938 192.809 337.602 193.34C337.266 193.871 337.098 194.465 337.098 195.121C337.098 195.879 337.258 196.52 337.578 197.043C337.906 197.566 338.355 197.961 338.926 198.227C339.504 198.492 340.168 198.625 340.918 198.625ZM340.918 207.32C341.684 207.32 342.391 207.16 343.039 206.84C343.695 206.52 344.215 206.07 344.598 205.492C344.988 204.906 345.184 204.242 345.184 203.5C345.184 202.672 345 201.973 344.633 201.402C344.273 200.824 343.773 200.391 343.133 200.102C342.492 199.812 341.754 199.668 340.918 199.668C340.098 199.668 339.367 199.809 338.727 200.09C338.086 200.371 337.578 200.801 337.203 201.379C336.836 201.949 336.652 202.656 336.652 203.5C336.652 204.25 336.848 204.918 337.238 205.504C337.629 206.082 338.148 206.531 338.797 206.852C339.453 207.164 340.16 207.32 340.918 207.32ZM352.309 192.262L348.676 194.359V193.117L352.309 191.02H353.469V208H352.309V192.262ZM82.7891 247.02C84.5938 247.02 85.9688 247.422 86.9141 248.227C87.8594 249.031 88.332 250.242 88.332 251.859C88.332 253.297 87.9258 254.41 87.1133 255.199C86.3008 255.98 85.1992 256.438 83.8086 256.57L88.5781 264H87.1602L82.5664 256.711H75.9922V264H74.8438V247.02H82.7891ZM82.707 255.633C83.5664 255.633 84.3281 255.492 84.9922 255.211C85.6641 254.93 86.1914 254.508 86.5742 253.945C86.957 253.375 87.1484 252.68 87.1484 251.859C87.1484 249.344 85.668 248.086 82.707 248.086H75.9922V255.645L82.707 255.633ZM96.9688 264.363C95.9219 264.363 95.0078 264.141 94.2266 263.695C93.4453 263.242 92.8438 262.625 92.4219 261.844C92.0078 261.055 91.8008 260.16 91.8008 259.16V252.129H92.8555V259.148C92.8555 259.984 93.0352 260.723 93.3945 261.363C93.7617 261.996 94.2578 262.484 94.8828 262.828C95.5078 263.172 96.2031 263.344 96.9688 263.344C97.7734 263.344 98.4883 263.16 99.1133 262.793C99.7383 262.426 100.223 261.926 100.566 261.293C100.91 260.652 101.082 259.938 101.082 259.148V252.129H102.148V259.16C102.148 260.215 101.926 261.137 101.48 261.926C101.035 262.707 100.418 263.309 99.6289 263.73C98.8477 264.152 97.9609 264.363 96.9688 264.363ZM111.582 264.363C110.371 264.363 109.293 264.094 108.348 263.555C107.41 263.008 106.68 262.258 106.156 261.305C105.641 260.344 105.383 259.266 105.383 258.07C105.383 256.82 105.652 255.719 106.191 254.766C106.738 253.805 107.48 253.066 108.418 252.551C109.363 252.027 110.418 251.766 111.582 251.766C112.691 251.766 113.695 252 114.594 252.469C115.5 252.93 116.219 253.609 116.75 254.508C117.281 255.398 117.547 256.461 117.547 257.695C117.547 257.914 117.539 258.109 117.523 258.281H106.473C106.48 259.312 106.707 260.223 107.152 261.012C107.605 261.793 108.219 262.398 108.992 262.828C109.766 263.25 110.633 263.461 111.594 263.461C112.625 263.461 113.531 263.227 114.312 262.758C115.094 262.281 115.699 261.633 116.129 260.812L117.078 261.223C116.594 262.176 115.867 262.938 114.898 263.508C113.93 264.078 112.824 264.363 111.582 264.363ZM116.445 257.461C116.422 256.539 116.207 255.715 115.801 254.988C115.395 254.262 114.824 253.695 114.09 253.289C113.363 252.875 112.527 252.668 111.582 252.668C110.629 252.668 109.777 252.875 109.027 253.289C108.277 253.703 107.684 254.273 107.246 255C106.809 255.727 106.555 256.547 106.484 257.461H116.445ZM132.172 264.363C130.961 264.363 129.891 264.09 128.961 263.543C128.039 262.988 127.324 262.234 126.816 261.281C126.316 260.32 126.066 259.25 126.066 258.07C126.066 256.812 126.332 255.707 126.863 254.754C127.402 253.801 128.133 253.066 129.055 252.551C129.984 252.027 131.023 251.766 132.172 251.766C133.398 251.766 134.469 252.066 135.383 252.668C136.305 253.262 136.984 254.07 137.422 255.094V247.02H138.488V264H137.785L137.539 261.105C137.078 262.105 136.379 262.898 135.441 263.484C134.504 264.07 133.414 264.363 132.172 264.363ZM132.289 263.355C133.305 263.355 134.203 263.125 134.984 262.664C135.766 262.203 136.371 261.57 136.801 260.766C137.23 259.961 137.445 259.062 137.445 258.07C137.445 257.023 137.219 256.098 136.766 255.293C136.32 254.488 135.703 253.867 134.914 253.43C134.133 252.992 133.258 252.773 132.289 252.773C131.266 252.773 130.359 253.008 129.57 253.477C128.789 253.938 128.184 254.57 127.754 255.375C127.332 256.18 127.121 257.078 127.121 258.07C127.121 259.117 127.344 260.043 127.789 260.848C128.242 261.645 128.859 262.262 129.641 262.699C130.43 263.137 131.312 263.355 132.289 263.355ZM148.402 264.363C147.191 264.363 146.113 264.094 145.168 263.555C144.23 263.008 143.5 262.258 142.977 261.305C142.461 260.344 142.203 259.266 142.203 258.07C142.203 256.82 142.473 255.719 143.012 254.766C143.559 253.805 144.301 253.066 145.238 252.551C146.184 252.027 147.238 251.766 148.402 251.766C149.512 251.766 150.516 252 151.414 252.469C152.32 252.93 153.039 253.609 153.57 254.508C154.102 255.398 154.367 256.461 154.367 257.695C154.367 257.914 154.359 258.109 154.344 258.281H143.293C143.301 259.312 143.527 260.223 143.973 261.012C144.426 261.793 145.039 262.398 145.812 262.828C146.586 263.25 147.453 263.461 148.414 263.461C149.445 263.461 150.352 263.227 151.133 262.758C151.914 262.281 152.52 261.633 152.949 260.812L153.898 261.223C153.414 262.176 152.688 262.938 151.719 263.508C150.75 264.078 149.645 264.363 148.402 264.363ZM153.266 257.461C153.242 256.539 153.027 255.715 152.621 254.988C152.215 254.262 151.645 253.695 150.91 253.289C150.184 252.875 149.348 252.668 148.402 252.668C147.449 252.668 146.598 252.875 145.848 253.289C145.098 253.703 144.504 254.273 144.066 255C143.629 255.727 143.375 256.547 143.305 257.461H153.266ZM170.727 264.363C169.242 264.363 167.941 264.094 166.824 263.555C165.715 263.008 164.859 262.266 164.258 261.328C163.656 260.383 163.355 259.32 163.355 258.141V252.867C163.355 251.648 163.676 250.57 164.316 249.633C164.957 248.688 165.836 247.957 166.953 247.441C168.078 246.918 169.336 246.656 170.727 246.656C172.133 246.656 173.348 246.863 174.371 247.277C175.402 247.691 176.215 248.266 176.809 249C177.402 249.734 177.781 250.582 177.945 251.543H176.785C176.605 250.809 176.258 250.156 175.742 249.586C175.234 249.008 174.555 248.555 173.703 248.227C172.859 247.898 171.867 247.734 170.727 247.734C169.602 247.734 168.562 247.953 167.609 248.391C166.664 248.82 165.91 249.426 165.348 250.207C164.785 250.988 164.504 251.875 164.504 252.867V258.188C164.504 259.211 164.773 260.113 165.312 260.895C165.859 261.668 166.605 262.266 167.551 262.688C168.496 263.109 169.555 263.32 170.727 263.32C171.766 263.32 172.711 263.156 173.562 262.828C174.414 262.5 175.117 262.051 175.672 261.48C176.227 260.902 176.594 260.25 176.773 259.523V256.148H171.02V255.211H177.945V264H177.254L177.008 261.211C176.445 262.188 175.621 262.957 174.535 263.52C173.457 264.082 172.188 264.363 170.727 264.363ZM183.465 247.02V254.836C183.715 254.242 184.062 253.715 184.508 253.254C184.953 252.785 185.473 252.422 186.066 252.164C186.668 251.898 187.309 251.766 187.988 251.766C188.934 251.766 189.766 251.984 190.484 252.422C191.211 252.852 191.77 253.438 192.16 254.18C192.559 254.922 192.758 255.742 192.758 256.641V264H191.691V256.664C191.691 255.953 191.523 255.305 191.188 254.719C190.859 254.125 190.398 253.656 189.805 253.312C189.211 252.961 188.547 252.785 187.812 252.785C187 252.785 186.262 252.984 185.598 253.383C184.934 253.781 184.41 254.312 184.027 254.977C183.652 255.641 183.465 256.352 183.465 257.109V264H182.41V247.02H183.465ZM197.457 249.281C197.184 249.281 196.957 249.195 196.777 249.023C196.605 248.844 196.52 248.617 196.52 248.344C196.52 248.062 196.609 247.836 196.789 247.664C196.969 247.492 197.191 247.406 197.457 247.406C197.738 247.406 197.965 247.496 198.137 247.676C198.316 247.848 198.406 248.07 198.406 248.344C198.406 248.617 198.316 248.844 198.137 249.023C197.957 249.195 197.73 249.281 197.457 249.281ZM196.93 252.129H197.996V264H196.93V252.129ZM206.176 264.363C205.004 264.363 203.977 264.137 203.094 263.684C202.219 263.23 201.559 262.535 201.113 261.598L202.133 261.27C202.508 261.996 203.055 262.543 203.773 262.91C204.5 263.277 205.305 263.461 206.188 263.461C206.961 263.461 207.625 263.34 208.18 263.098C208.734 262.848 209.152 262.527 209.434 262.137C209.715 261.746 209.855 261.344 209.855 260.93C209.848 260.281 209.629 259.766 209.199 259.383C208.777 258.992 208.137 258.711 207.277 258.539L204.582 257.988C203.527 257.777 202.75 257.441 202.25 256.98C201.75 256.512 201.5 255.871 201.5 255.059C201.5 254.457 201.668 253.91 202.004 253.418C202.348 252.918 202.867 252.52 203.562 252.223C204.266 251.918 205.133 251.766 206.164 251.766C207.234 251.766 208.145 251.969 208.895 252.375C209.652 252.781 210.254 253.406 210.699 254.25L209.691 254.566C209.012 253.301 207.848 252.668 206.199 252.668C205.395 252.668 204.723 252.777 204.184 252.996C203.645 253.215 203.246 253.508 202.988 253.875C202.73 254.234 202.602 254.629 202.602 255.059C202.602 255.629 202.789 256.078 203.164 256.406C203.547 256.727 204.16 256.973 205.004 257.145L207.664 257.684C208.781 257.902 209.609 258.27 210.148 258.785C210.688 259.293 210.957 260.008 210.957 260.93C210.957 261.531 210.781 262.094 210.43 262.617C210.078 263.141 209.543 263.562 208.824 263.883C208.105 264.203 207.223 264.363 206.176 264.363ZM214.426 247.02H215.492V264H214.426V247.02ZM225.371 264.363C224.16 264.363 223.082 264.094 222.137 263.555C221.199 263.008 220.469 262.258 219.945 261.305C219.43 260.344 219.172 259.266 219.172 258.07C219.172 256.82 219.441 255.719 219.98 254.766C220.527 253.805 221.27 253.066 222.207 252.551C223.152 252.027 224.207 251.766 225.371 251.766C226.48 251.766 227.484 252 228.383 252.469C229.289 252.93 230.008 253.609 230.539 254.508C231.07 255.398 231.336 256.461 231.336 257.695C231.336 257.914 231.328 258.109 231.312 258.281H220.262C220.27 259.312 220.496 260.223 220.941 261.012C221.395 261.793 222.008 262.398 222.781 262.828C223.555 263.25 224.422 263.461 225.383 263.461C226.414 263.461 227.32 263.227 228.102 262.758C228.883 262.281 229.488 261.633 229.918 260.812L230.867 261.223C230.383 262.176 229.656 262.938 228.688 263.508C227.719 264.078 226.613 264.363 225.371 264.363ZM230.234 257.461C230.211 256.539 229.996 255.715 229.59 254.988C229.184 254.262 228.613 253.695 227.879 253.289C227.152 252.875 226.316 252.668 225.371 252.668C224.418 252.668 223.566 252.875 222.816 253.289C222.066 253.703 221.473 254.273 221.035 255C220.598 255.727 220.344 256.547 220.273 257.461H230.234ZM235.613 252.129L235.66 254.859C235.91 254.25 236.266 253.711 236.727 253.242C237.188 252.773 237.723 252.41 238.332 252.152C238.941 251.895 239.578 251.766 240.242 251.766C241.188 251.766 242.02 251.984 242.738 252.422C243.457 252.852 244.012 253.438 244.402 254.18C244.801 254.922 245 255.742 245 256.641V264H243.945V256.664C243.945 255.93 243.77 255.266 243.418 254.672C243.074 254.078 242.605 253.617 242.012 253.289C241.418 252.953 240.77 252.785 240.066 252.785C239.254 252.785 238.512 252.984 237.84 253.383C237.176 253.781 236.652 254.312 236.27 254.977C235.895 255.641 235.707 256.352 235.707 257.109V264H234.641V252.129H235.613ZM254.668 269.156C253.395 269.156 252.281 268.863 251.328 268.277C250.383 267.699 249.66 266.91 249.16 265.91L250.133 265.57C250.555 266.391 251.156 267.039 251.938 267.516C252.719 267.992 253.629 268.23 254.668 268.23C255.66 268.23 256.539 268.055 257.305 267.703C258.078 267.359 258.684 266.844 259.121 266.156C259.559 265.477 259.777 264.656 259.777 263.695V261.023C259.301 262.055 258.621 262.863 257.738 263.449C256.863 264.027 255.789 264.316 254.516 264.316C253.297 264.316 252.227 264.047 251.305 263.508C250.383 262.961 249.668 262.215 249.16 261.27C248.66 260.316 248.41 259.25 248.41 258.07C248.41 256.812 248.676 255.707 249.207 254.754C249.746 253.801 250.477 253.066 251.398 252.551C252.328 252.027 253.367 251.766 254.516 251.766C255.75 251.766 256.832 252.066 257.762 252.668C258.691 253.27 259.375 254.082 259.812 255.105L259.871 252.129H260.832V263.707C260.832 264.848 260.574 265.828 260.059 266.648C259.551 267.469 258.832 268.09 257.902 268.512C256.98 268.941 255.902 269.156 254.668 269.156ZM254.633 263.355C255.656 263.355 256.559 263.125 257.34 262.664C258.121 262.203 258.727 261.57 259.156 260.766C259.586 259.961 259.801 259.062 259.801 258.07C259.801 257.023 259.574 256.098 259.121 255.293C258.668 254.488 258.047 253.867 257.258 253.43C256.477 252.992 255.602 252.773 254.633 252.773C253.609 252.773 252.703 253.008 251.914 253.477C251.133 253.938 250.527 254.57 250.098 255.375C249.676 256.18 249.465 257.078 249.465 258.07C249.465 259.117 249.688 260.043 250.133 260.848C250.586 261.645 251.203 262.262 251.984 262.699C252.773 263.137 253.656 263.355 254.633 263.355ZM266.574 247.02V254.836C266.824 254.242 267.172 253.715 267.617 253.254C268.062 252.785 268.582 252.422 269.176 252.164C269.777 251.898 270.418 251.766 271.098 251.766C272.043 251.766 272.875 251.984 273.594 252.422C274.32 252.852 274.879 253.438 275.27 254.18C275.668 254.922 275.867 255.742 275.867 256.641V264H274.801V256.664C274.801 255.953 274.633 255.305 274.297 254.719C273.969 254.125 273.508 253.656 272.914 253.312C272.32 252.961 271.656 252.785 270.922 252.785C270.109 252.785 269.371 252.984 268.707 253.383C268.043 253.781 267.52 254.312 267.137 254.977C266.762 255.641 266.574 256.352 266.574 257.109V264H265.52V247.02H266.574ZM280.566 249.281C280.293 249.281 280.066 249.195 279.887 249.023C279.715 248.844 279.629 248.617 279.629 248.344C279.629 248.062 279.719 247.836 279.898 247.664C280.078 247.492 280.301 247.406 280.566 247.406C280.848 247.406 281.074 247.496 281.246 247.676C281.426 247.848 281.516 248.07 281.516 248.344C281.516 248.617 281.426 248.844 281.246 249.023C281.066 249.195 280.84 249.281 280.566 249.281ZM280.039 252.129H281.105V264H280.039V252.129ZM290.691 264.363C289.48 264.363 288.402 264.094 287.457 263.555C286.52 263.008 285.789 262.258 285.266 261.305C284.75 260.344 284.492 259.266 284.492 258.07C284.492 256.82 284.762 255.719 285.301 254.766C285.848 253.805 286.59 253.066 287.527 252.551C288.473 252.027 289.527 251.766 290.691 251.766C291.801 251.766 292.805 252 293.703 252.469C294.609 252.93 295.328 253.609 295.859 254.508C296.391 255.398 296.656 256.461 296.656 257.695C296.656 257.914 296.648 258.109 296.633 258.281H285.582C285.59 259.312 285.816 260.223 286.262 261.012C286.715 261.793 287.328 262.398 288.102 262.828C288.875 263.25 289.742 263.461 290.703 263.461C291.734 263.461 292.641 263.227 293.422 262.758C294.203 262.281 294.809 261.633 295.238 260.812L296.188 261.223C295.703 262.176 294.977 262.938 294.008 263.508C293.039 264.078 291.934 264.363 290.691 264.363ZM295.555 257.461C295.531 256.539 295.316 255.715 294.91 254.988C294.504 254.262 293.934 253.695 293.199 253.289C292.473 252.875 291.637 252.668 290.691 252.668C289.738 252.668 288.887 252.875 288.137 253.289C287.387 253.703 286.793 254.273 286.355 255C285.918 255.727 285.664 256.547 285.594 257.461H295.555ZM300.934 252.129L300.98 254.859C301.23 254.25 301.586 253.711 302.047 253.242C302.508 252.773 303.043 252.41 303.652 252.152C304.262 251.895 304.898 251.766 305.562 251.766C306.508 251.766 307.34 251.984 308.059 252.422C308.777 252.852 309.332 253.438 309.723 254.18C310.121 254.922 310.32 255.742 310.32 256.641V264H309.266V256.664C309.266 255.93 309.09 255.266 308.738 254.672C308.395 254.078 307.926 253.617 307.332 253.289C306.738 252.953 306.09 252.785 305.387 252.785C304.574 252.785 303.832 252.984 303.16 253.383C302.496 253.781 301.973 254.312 301.59 254.977C301.215 255.641 301.027 256.352 301.027 257.109V264H299.961V252.129H300.934ZM314.105 262.77H315.559L313.695 266.707H312.887L314.105 262.77ZM329.434 264.352C328.355 264.352 327.406 264.137 326.586 263.707C325.773 263.27 325.145 262.676 324.699 261.926C324.254 261.176 324.031 260.348 324.031 259.441H325.18C325.18 260.105 325.348 260.734 325.684 261.328C326.027 261.922 326.52 262.402 327.16 262.77C327.809 263.137 328.566 263.32 329.434 263.32C330.223 263.32 330.941 263.148 331.59 262.805C332.238 262.461 332.75 261.98 333.125 261.363C333.508 260.746 333.699 260.055 333.699 259.289C333.699 258.57 333.527 257.906 333.184 257.297C332.848 256.68 332.355 256.188 331.707 255.82C331.059 255.445 330.297 255.258 329.422 255.258H327.84V254.344L332.832 248.039H324.535V247.02H334.156V248.016L329.105 254.32H329.797C330.711 254.32 331.551 254.516 332.316 254.906C333.09 255.297 333.707 255.867 334.168 256.617C334.629 257.367 334.859 258.25 334.859 259.266C334.859 260.203 334.637 261.059 334.191 261.832C333.754 262.605 333.121 263.219 332.293 263.672C331.473 264.125 330.52 264.352 329.434 264.352ZM343.027 264.352C341.949 264.352 341 264.137 340.18 263.707C339.367 263.27 338.738 262.676 338.293 261.926C337.848 261.176 337.625 260.348 337.625 259.441H338.773C338.773 260.105 338.941 260.734 339.277 261.328C339.621 261.922 340.113 262.402 340.754 262.77C341.402 263.137 342.16 263.32 343.027 263.32C343.816 263.32 344.535 263.148 345.184 262.805C345.832 262.461 346.344 261.98 346.719 261.363C347.102 260.746 347.293 260.055 347.293 259.289C347.293 258.57 347.121 257.906 346.777 257.297C346.441 256.68 345.949 256.188 345.301 255.82C344.652 255.445 343.891 255.258 343.016 255.258H341.434V254.344L346.426 248.039H338.129V247.02H347.75V248.016L342.699 254.32H343.391C344.305 254.32 345.145 254.516 345.91 254.906C346.684 255.297 347.301 255.867 347.762 256.617C348.223 257.367 348.453 258.25 348.453 259.266C348.453 260.203 348.23 261.059 347.785 261.832C347.348 262.605 346.715 263.219 345.887 263.672C345.066 264.125 344.113 264.352 343.027 264.352ZM154.73 276.039H146.164V278.477H145.098V275.02H155.961V276.027L148.109 292H146.832L154.73 276.039ZM164.48 292.352C163.402 292.352 162.449 292.137 161.621 291.707C160.801 291.277 160.168 290.695 159.723 289.961C159.277 289.219 159.055 288.398 159.055 287.5C159.055 286.359 159.336 285.41 159.898 284.652C160.469 283.895 161.238 283.371 162.207 283.082C161.395 282.801 160.75 282.32 160.273 281.641C159.797 280.961 159.559 280.117 159.559 279.109C159.559 278.289 159.758 277.543 160.156 276.871C160.562 276.191 161.137 275.652 161.879 275.254C162.629 274.855 163.496 274.656 164.48 274.656C165.465 274.656 166.328 274.855 167.07 275.254C167.812 275.645 168.383 276.18 168.781 276.859C169.188 277.539 169.391 278.289 169.391 279.109C169.391 280.117 169.152 280.961 168.676 281.641C168.199 282.32 167.559 282.801 166.754 283.082C167.715 283.371 168.48 283.898 169.051 284.664C169.621 285.422 169.906 286.367 169.906 287.5C169.906 288.383 169.688 289.195 169.25 289.938C168.812 290.672 168.184 291.258 167.363 291.695C166.543 292.133 165.582 292.352 164.48 292.352ZM164.48 282.625C165.207 282.625 165.855 282.5 166.426 282.25C167.004 281.992 167.457 281.602 167.785 281.078C168.121 280.547 168.289 279.895 168.289 279.121C168.289 278.441 168.113 277.84 167.762 277.316C167.418 276.785 166.953 276.375 166.367 276.086C165.789 275.789 165.16 275.641 164.48 275.641C163.77 275.641 163.121 275.793 162.535 276.098C161.957 276.395 161.5 276.809 161.164 277.34C160.828 277.871 160.66 278.465 160.66 279.121C160.66 279.879 160.82 280.52 161.141 281.043C161.469 281.566 161.918 281.961 162.488 282.227C163.066 282.492 163.73 282.625 164.48 282.625ZM164.48 291.32C165.246 291.32 165.953 291.16 166.602 290.84C167.258 290.52 167.777 290.07 168.16 289.492C168.551 288.906 168.746 288.242 168.746 287.5C168.746 286.672 168.562 285.973 168.195 285.402C167.836 284.824 167.336 284.391 166.695 284.102C166.055 283.812 165.316 283.668 164.48 283.668C163.66 283.668 162.93 283.809 162.289 284.09C161.648 284.371 161.141 284.801 160.766 285.379C160.398 285.949 160.215 286.656 160.215 287.5C160.215 288.25 160.41 288.918 160.801 289.504C161.191 290.082 161.711 290.531 162.359 290.852C163.016 291.164 163.723 291.32 164.48 291.32ZM180.008 284.477C180.672 283.82 181.203 283.242 181.602 282.742C182.008 282.242 182.32 281.734 182.539 281.219C182.766 280.703 182.879 280.16 182.879 279.59C182.879 278.918 182.703 278.285 182.352 277.691C182.008 277.098 181.512 276.621 180.863 276.262C180.223 275.902 179.477 275.723 178.625 275.723C177.766 275.723 177.016 275.906 176.375 276.273C175.734 276.633 175.242 277.109 174.898 277.703C174.555 278.297 174.383 278.926 174.383 279.59V280.34H173.223V279.59C173.223 278.684 173.445 277.855 173.891 277.105C174.336 276.348 174.965 275.75 175.777 275.312C176.598 274.875 177.547 274.656 178.625 274.656C179.703 274.656 180.652 274.875 181.473 275.312C182.293 275.75 182.922 276.344 183.359 277.094C183.805 277.844 184.027 278.676 184.027 279.59C184.027 280.301 183.895 280.969 183.629 281.594C183.371 282.211 183.016 282.797 182.562 283.352C182.117 283.906 181.543 284.52 180.84 285.191L174.793 290.98H183.875V292H173.223V291.027L180.008 284.477ZM193.742 284.477C194.406 283.82 194.938 283.242 195.336 282.742C195.742 282.242 196.055 281.734 196.273 281.219C196.5 280.703 196.613 280.16 196.613 279.59C196.613 278.918 196.438 278.285 196.086 277.691C195.742 277.098 195.246 276.621 194.598 276.262C193.957 275.902 193.211 275.723 192.359 275.723C191.5 275.723 190.75 275.906 190.109 276.273C189.469 276.633 188.977 277.109 188.633 277.703C188.289 278.297 188.117 278.926 188.117 279.59V280.34H186.957V279.59C186.957 278.684 187.18 277.855 187.625 277.105C188.07 276.348 188.699 275.75 189.512 275.312C190.332 274.875 191.281 274.656 192.359 274.656C193.438 274.656 194.387 274.875 195.207 275.312C196.027 275.75 196.656 276.344 197.094 277.094C197.539 277.844 197.762 278.676 197.762 279.59C197.762 280.301 197.629 280.969 197.363 281.594C197.105 282.211 196.75 282.797 196.297 283.352C195.852 283.906 195.277 284.52 194.574 285.191L188.527 290.98H197.609V292H186.957V291.027L193.742 284.477ZM214.367 292.363C212.883 292.363 211.582 292.094 210.465 291.555C209.355 291.008 208.5 290.266 207.898 289.328C207.297 288.383 206.996 287.32 206.996 286.141V280.867C206.996 279.648 207.316 278.57 207.957 277.633C208.598 276.688 209.477 275.957 210.594 275.441C211.719 274.918 212.977 274.656 214.367 274.656C215.773 274.656 216.988 274.863 218.012 275.277C219.043 275.691 219.855 276.266 220.449 277C221.043 277.734 221.422 278.582 221.586 279.543H220.426C220.246 278.809 219.898 278.156 219.383 277.586C218.875 277.008 218.195 276.555 217.344 276.227C216.5 275.898 215.508 275.734 214.367 275.734C213.242 275.734 212.203 275.953 211.25 276.391C210.305 276.82 209.551 277.426 208.988 278.207C208.426 278.988 208.145 279.875 208.145 280.867V286.188C208.145 287.211 208.414 288.113 208.953 288.895C209.5 289.668 210.246 290.266 211.191 290.688C212.137 291.109 213.195 291.32 214.367 291.32C215.406 291.32 216.352 291.156 217.203 290.828C218.055 290.5 218.758 290.051 219.312 289.48C219.867 288.902 220.234 288.25 220.414 287.523V284.148H214.66V283.211H221.586V292H220.895L220.648 289.211C220.086 290.188 219.262 290.957 218.176 291.52C217.098 292.082 215.828 292.363 214.367 292.363ZM227.105 275.02V282.836C227.355 282.242 227.703 281.715 228.148 281.254C228.594 280.785 229.113 280.422 229.707 280.164C230.309 279.898 230.949 279.766 231.629 279.766C232.574 279.766 233.406 279.984 234.125 280.422C234.852 280.852 235.41 281.438 235.801 282.18C236.199 282.922 236.398 283.742 236.398 284.641V292H235.332V284.664C235.332 283.953 235.164 283.305 234.828 282.719C234.5 282.125 234.039 281.656 233.445 281.312C232.852 280.961 232.188 280.785 231.453 280.785C230.641 280.785 229.902 280.984 229.238 281.383C228.574 281.781 228.051 282.312 227.668 282.977C227.293 283.641 227.105 284.352 227.105 285.109V292H226.051V275.02H227.105ZM241.098 277.281C240.824 277.281 240.598 277.195 240.418 277.023C240.246 276.844 240.16 276.617 240.16 276.344C240.16 276.062 240.25 275.836 240.43 275.664C240.609 275.492 240.832 275.406 241.098 275.406C241.379 275.406 241.605 275.496 241.777 275.676C241.957 275.848 242.047 276.07 242.047 276.344C242.047 276.617 241.957 276.844 241.777 277.023C241.598 277.195 241.371 277.281 241.098 277.281ZM240.57 280.129H241.637V292H240.57V280.129ZM249.816 292.363C248.645 292.363 247.617 292.137 246.734 291.684C245.859 291.23 245.199 290.535 244.754 289.598L245.773 289.27C246.148 289.996 246.695 290.543 247.414 290.91C248.141 291.277 248.945 291.461 249.828 291.461C250.602 291.461 251.266 291.34 251.82 291.098C252.375 290.848 252.793 290.527 253.074 290.137C253.355 289.746 253.496 289.344 253.496 288.93C253.488 288.281 253.27 287.766 252.84 287.383C252.418 286.992 251.777 286.711 250.918 286.539L248.223 285.988C247.168 285.777 246.391 285.441 245.891 284.98C245.391 284.512 245.141 283.871 245.141 283.059C245.141 282.457 245.309 281.91 245.645 281.418C245.988 280.918 246.508 280.52 247.203 280.223C247.906 279.918 248.773 279.766 249.805 279.766C250.875 279.766 251.785 279.969 252.535 280.375C253.293 280.781 253.895 281.406 254.34 282.25L253.332 282.566C252.652 281.301 251.488 280.668 249.84 280.668C249.035 280.668 248.363 280.777 247.824 280.996C247.285 281.215 246.887 281.508 246.629 281.875C246.371 282.234 246.242 282.629 246.242 283.059C246.242 283.629 246.43 284.078 246.805 284.406C247.188 284.727 247.801 284.973 248.645 285.145L251.305 285.684C252.422 285.902 253.25 286.27 253.789 286.785C254.328 287.293 254.598 288.008 254.598 288.93C254.598 289.531 254.422 290.094 254.07 290.617C253.719 291.141 253.184 291.562 252.465 291.883C251.746 292.203 250.863 292.363 249.816 292.363ZM258.066 275.02H259.133V292H258.066V275.02ZM269.012 292.363C267.801 292.363 266.723 292.094 265.777 291.555C264.84 291.008 264.109 290.258 263.586 289.305C263.07 288.344 262.812 287.266 262.812 286.07C262.812 284.82 263.082 283.719 263.621 282.766C264.168 281.805 264.91 281.066 265.848 280.551C266.793 280.027 267.848 279.766 269.012 279.766C270.121 279.766 271.125 280 272.023 280.469C272.93 280.93 273.648 281.609 274.18 282.508C274.711 283.398 274.977 284.461 274.977 285.695C274.977 285.914 274.969 286.109 274.953 286.281H263.902C263.91 287.312 264.137 288.223 264.582 289.012C265.035 289.793 265.648 290.398 266.422 290.828C267.195 291.25 268.062 291.461 269.023 291.461C270.055 291.461 270.961 291.227 271.742 290.758C272.523 290.281 273.129 289.633 273.559 288.812L274.508 289.223C274.023 290.176 273.297 290.938 272.328 291.508C271.359 292.078 270.254 292.363 269.012 292.363ZM273.875 285.461C273.852 284.539 273.637 283.715 273.23 282.988C272.824 282.262 272.254 281.695 271.52 281.289C270.793 280.875 269.957 280.668 269.012 280.668C268.059 280.668 267.207 280.875 266.457 281.289C265.707 281.703 265.113 282.273 264.676 283C264.238 283.727 263.984 284.547 263.914 285.461H273.875ZM279.254 280.129L279.301 282.859C279.551 282.25 279.906 281.711 280.367 281.242C280.828 280.773 281.363 280.41 281.973 280.152C282.582 279.895 283.219 279.766 283.883 279.766C284.828 279.766 285.66 279.984 286.379 280.422C287.098 280.852 287.652 281.438 288.043 282.18C288.441 282.922 288.641 283.742 288.641 284.641V292H287.586V284.664C287.586 283.93 287.41 283.266 287.059 282.672C286.715 282.078 286.246 281.617 285.652 281.289C285.059 280.953 284.41 280.785 283.707 280.785C282.895 280.785 282.152 280.984 281.48 281.383C280.816 281.781 280.293 282.312 279.91 282.977C279.535 283.641 279.348 284.352 279.348 285.109V292H278.281V280.129H279.254ZM298.309 297.156C297.035 297.156 295.922 296.863 294.969 296.277C294.023 295.699 293.301 294.91 292.801 293.91L293.773 293.57C294.195 294.391 294.797 295.039 295.578 295.516C296.359 295.992 297.27 296.23 298.309 296.23C299.301 296.23 300.18 296.055 300.945 295.703C301.719 295.359 302.324 294.844 302.762 294.156C303.199 293.477 303.418 292.656 303.418 291.695V289.023C302.941 290.055 302.262 290.863 301.379 291.449C300.504 292.027 299.43 292.316 298.156 292.316C296.938 292.316 295.867 292.047 294.945 291.508C294.023 290.961 293.309 290.215 292.801 289.27C292.301 288.316 292.051 287.25 292.051 286.07C292.051 284.812 292.316 283.707 292.848 282.754C293.387 281.801 294.117 281.066 295.039 280.551C295.969 280.027 297.008 279.766 298.156 279.766C299.391 279.766 300.473 280.066 301.402 280.668C302.332 281.27 303.016 282.082 303.453 283.105L303.512 280.129H304.473V291.707C304.473 292.848 304.215 293.828 303.699 294.648C303.191 295.469 302.473 296.09 301.543 296.512C300.621 296.941 299.543 297.156 298.309 297.156ZM298.273 291.355C299.297 291.355 300.199 291.125 300.98 290.664C301.762 290.203 302.367 289.57 302.797 288.766C303.227 287.961 303.441 287.062 303.441 286.07C303.441 285.023 303.215 284.098 302.762 283.293C302.309 282.488 301.688 281.867 300.898 281.43C300.117 280.992 299.242 280.773 298.273 280.773C297.25 280.773 296.344 281.008 295.555 281.477C294.773 281.938 294.168 282.57 293.738 283.375C293.316 284.18 293.105 285.078 293.105 286.07C293.105 287.117 293.328 288.043 293.773 288.848C294.227 289.645 294.844 290.262 295.625 290.699C296.414 291.137 297.297 291.355 298.273 291.355ZM310.215 275.02V282.836C310.465 282.242 310.812 281.715 311.258 281.254C311.703 280.785 312.223 280.422 312.816 280.164C313.418 279.898 314.059 279.766 314.738 279.766C315.684 279.766 316.516 279.984 317.234 280.422C317.961 280.852 318.52 281.438 318.91 282.18C319.309 282.922 319.508 283.742 319.508 284.641V292H318.441V284.664C318.441 283.953 318.273 283.305 317.938 282.719C317.609 282.125 317.148 281.656 316.555 281.312C315.961 280.961 315.297 280.785 314.562 280.785C313.75 280.785 313.012 280.984 312.348 281.383C311.684 281.781 311.16 282.312 310.777 282.977C310.402 283.641 310.215 284.352 310.215 285.109V292H309.16V275.02H310.215ZM324.207 277.281C323.934 277.281 323.707 277.195 323.527 277.023C323.355 276.844 323.27 276.617 323.27 276.344C323.27 276.062 323.359 275.836 323.539 275.664C323.719 275.492 323.941 275.406 324.207 275.406C324.488 275.406 324.715 275.496 324.887 275.676C325.066 275.848 325.156 276.07 325.156 276.344C325.156 276.617 325.066 276.844 324.887 277.023C324.707 277.195 324.48 277.281 324.207 277.281ZM323.68 280.129H324.746V292H323.68V280.129ZM334.332 292.363C333.121 292.363 332.043 292.094 331.098 291.555C330.16 291.008 329.43 290.258 328.906 289.305C328.391 288.344 328.133 287.266 328.133 286.07C328.133 284.82 328.402 283.719 328.941 282.766C329.488 281.805 330.23 281.066 331.168 280.551C332.113 280.027 333.168 279.766 334.332 279.766C335.441 279.766 336.445 280 337.344 280.469C338.25 280.93 338.969 281.609 339.5 282.508C340.031 283.398 340.297 284.461 340.297 285.695C340.297 285.914 340.289 286.109 340.273 286.281H329.223C329.23 287.312 329.457 288.223 329.902 289.012C330.355 289.793 330.969 290.398 331.742 290.828C332.516 291.25 333.383 291.461 334.344 291.461C335.375 291.461 336.281 291.227 337.062 290.758C337.844 290.281 338.449 289.633 338.879 288.812L339.828 289.223C339.344 290.176 338.617 290.938 337.648 291.508C336.68 292.078 335.574 292.363 334.332 292.363ZM339.195 285.461C339.172 284.539 338.957 283.715 338.551 282.988C338.145 282.262 337.574 281.695 336.84 281.289C336.113 280.875 335.277 280.668 334.332 280.668C333.379 280.668 332.527 280.875 331.777 281.289C331.027 281.703 330.434 282.273 329.996 283C329.559 283.727 329.305 284.547 329.234 285.461H339.195ZM344.574 280.129L344.621 282.859C344.871 282.25 345.227 281.711 345.688 281.242C346.148 280.773 346.684 280.41 347.293 280.152C347.902 279.895 348.539 279.766 349.203 279.766C350.148 279.766 350.98 279.984 351.699 280.422C352.418 280.852 352.973 281.438 353.363 282.18C353.762 282.922 353.961 283.742 353.961 284.641V292H352.906V284.664C352.906 283.93 352.73 283.266 352.379 282.672C352.035 282.078 351.566 281.617 350.973 281.289C350.379 280.953 349.73 280.785 349.027 280.785C348.215 280.785 347.473 280.984 346.801 281.383C346.137 281.781 345.613 282.312 345.23 282.977C344.855 283.641 344.668 284.352 344.668 285.109V292H343.602V280.129H344.574ZM61.9883 336.129L62.0352 338.625C62.2461 338.031 62.5625 337.52 62.9844 337.09C63.4062 336.66 63.8945 336.332 64.4492 336.105C65.0039 335.879 65.582 335.766 66.1836 335.766C67.1445 335.766 67.9844 336.02 68.7031 336.527C69.4297 337.035 69.9336 337.746 70.2148 338.66C70.6055 337.723 71.1797 337.008 71.9375 336.516C72.6953 336.016 73.5547 335.766 74.5156 335.766C75.3672 335.766 76.1328 335.957 76.8125 336.34C77.4922 336.715 78.0273 337.254 78.418 337.957C78.8086 338.66 79.0039 339.477 79.0039 340.406V348H77.9492V340.418C77.9492 339.699 77.7891 339.066 77.4688 338.52C77.1562 337.965 76.7305 337.539 76.1914 337.242C75.6602 336.938 75.0781 336.785 74.4453 336.785C73.7656 336.785 73.125 336.961 72.5234 337.312C71.9297 337.656 71.4492 338.141 71.082 338.766C70.7227 339.383 70.543 340.086 70.543 340.875V348H69.4883V340.418C69.4883 339.691 69.332 339.055 69.0195 338.508C68.707 337.953 68.2852 337.527 67.7539 337.23C67.2227 336.934 66.6406 336.785 66.0078 336.785C65.3125 336.785 64.6641 336.961 64.0625 337.312C63.4609 337.664 62.9805 338.152 62.6211 338.777C62.2617 339.402 62.082 340.102 62.082 340.875V348H61.0156V336.129H61.9883ZM88.4375 348.363C87.2266 348.363 86.1562 348.09 85.2266 347.543C84.3047 346.988 83.5898 346.234 83.082 345.281C82.582 344.32 82.332 343.25 82.332 342.07C82.332 340.812 82.5977 339.707 83.1289 338.754C83.668 337.801 84.3984 337.066 85.3203 336.551C86.25 336.027 87.2891 335.766 88.4375 335.766C89.6797 335.766 90.7617 336.07 91.6836 336.68C92.6133 337.281 93.2969 338.09 93.7344 339.105L93.7812 336.129H94.7539V348H94.0508L93.8047 345.105C93.3359 346.105 92.6328 346.898 91.6953 347.484C90.7578 348.07 89.6719 348.363 88.4375 348.363ZM88.5547 347.355C89.5703 347.355 90.4688 347.125 91.25 346.664C92.0312 346.203 92.6367 345.57 93.0664 344.766C93.4961 343.961 93.7109 343.062 93.7109 342.07C93.7109 341.023 93.4844 340.098 93.0312 339.293C92.5859 338.488 91.9688 337.867 91.1797 337.43C90.3984 336.992 89.5234 336.773 88.5547 336.773C87.5312 336.773 86.625 337.008 85.8359 337.477C85.0547 337.938 84.4492 338.57 84.0195 339.375C83.5977 340.18 83.3867 341.078 83.3867 342.07C83.3867 343.117 83.6094 344.043 84.0547 344.848C84.5078 345.645 85.125 346.262 85.9062 346.699C86.6953 347.137 87.5781 347.355 88.5547 347.355ZM103.977 348.363C102.93 348.363 102.016 348.141 101.234 347.695C100.453 347.242 99.8516 346.625 99.4297 345.844C99.0156 345.055 98.8086 344.16 98.8086 343.16V336.129H99.8633V343.148C99.8633 343.984 100.043 344.723 100.402 345.363C100.77 345.996 101.266 346.484 101.891 346.828C102.516 347.172 103.211 347.344 103.977 347.344C104.781 347.344 105.496 347.16 106.121 346.793C106.746 346.426 107.23 345.926 107.574 345.293C107.918 344.652 108.09 343.938 108.09 343.148V336.129H109.156V343.16C109.156 344.215 108.934 345.137 108.488 345.926C108.043 346.707 107.426 347.309 106.637 347.73C105.855 348.152 104.969 348.363 103.977 348.363ZM114.266 336.129L114.324 338.859C114.574 338.234 114.93 337.691 115.391 337.23C115.859 336.762 116.395 336.402 116.996 336.152C117.605 335.895 118.242 335.766 118.906 335.766H119.598V336.82H118.719C117.898 336.82 117.156 337.023 116.492 337.43C115.828 337.828 115.305 338.359 114.922 339.023C114.547 339.688 114.359 340.402 114.359 341.168V348H113.305V336.129H114.266ZM122.645 333.281C122.371 333.281 122.145 333.195 121.965 333.023C121.793 332.844 121.707 332.617 121.707 332.344C121.707 332.062 121.797 331.836 121.977 331.664C122.156 331.492 122.379 331.406 122.645 331.406C122.926 331.406 123.152 331.496 123.324 331.676C123.504 331.848 123.594 332.07 123.594 332.344C123.594 332.617 123.504 332.844 123.324 333.023C123.145 333.195 122.918 333.281 122.645 333.281ZM122.117 336.129H123.184V348H122.117V336.129ZM128.457 336.129L128.504 338.859C128.754 338.25 129.109 337.711 129.57 337.242C130.031 336.773 130.566 336.41 131.176 336.152C131.785 335.895 132.422 335.766 133.086 335.766C134.031 335.766 134.863 335.984 135.582 336.422C136.301 336.852 136.855 337.438 137.246 338.18C137.645 338.922 137.844 339.742 137.844 340.641V348H136.789V340.664C136.789 339.93 136.613 339.266 136.262 338.672C135.918 338.078 135.449 337.617 134.855 337.289C134.262 336.953 133.613 336.785 132.91 336.785C132.098 336.785 131.355 336.984 130.684 337.383C130.02 337.781 129.496 338.312 129.113 338.977C128.738 339.641 128.551 340.352 128.551 341.109V348H127.484V336.129H128.457ZM147.324 348.363C146.113 348.363 145.035 348.094 144.09 347.555C143.152 347.008 142.422 346.258 141.898 345.305C141.383 344.344 141.125 343.266 141.125 342.07C141.125 340.82 141.395 339.719 141.934 338.766C142.48 337.805 143.223 337.066 144.16 336.551C145.105 336.027 146.16 335.766 147.324 335.766C148.434 335.766 149.438 336 150.336 336.469C151.242 336.93 151.961 337.609 152.492 338.508C153.023 339.398 153.289 340.461 153.289 341.695C153.289 341.914 153.281 342.109 153.266 342.281H142.215C142.223 343.312 142.449 344.223 142.895 345.012C143.348 345.793 143.961 346.398 144.734 346.828C145.508 347.25 146.375 347.461 147.336 347.461C148.367 347.461 149.273 347.227 150.055 346.758C150.836 346.281 151.441 345.633 151.871 344.812L152.82 345.223C152.336 346.176 151.609 346.938 150.641 347.508C149.672 348.078 148.566 348.363 147.324 348.363ZM152.188 341.461C152.164 340.539 151.949 339.715 151.543 338.988C151.137 338.262 150.566 337.695 149.832 337.289C149.105 336.875 148.27 336.668 147.324 336.668C146.371 336.668 145.52 336.875 144.77 337.289C144.02 337.703 143.426 338.273 142.988 339C142.551 339.727 142.297 340.547 142.227 341.461H152.188ZM156.5 348.352C156.219 348.352 155.988 348.262 155.809 348.082C155.637 347.91 155.551 347.688 155.551 347.414C155.551 347.148 155.641 346.93 155.82 346.758C156 346.578 156.227 346.488 156.5 346.488C156.773 346.488 156.996 346.578 157.168 346.758C157.348 346.93 157.438 347.148 157.438 347.414C157.438 347.688 157.352 347.91 157.18 348.082C157.008 348.262 156.781 348.352 156.5 348.352ZM165.852 348.363C164.641 348.363 163.57 348.09 162.641 347.543C161.719 346.988 161.004 346.234 160.496 345.281C159.996 344.32 159.746 343.25 159.746 342.07C159.746 340.812 160.012 339.707 160.543 338.754C161.082 337.801 161.812 337.066 162.734 336.551C163.664 336.027 164.703 335.766 165.852 335.766C167.078 335.766 168.148 336.066 169.062 336.668C169.984 337.262 170.664 338.07 171.102 339.094V331.02H172.168V348H171.465L171.219 345.105C170.758 346.105 170.059 346.898 169.121 347.484C168.184 348.07 167.094 348.363 165.852 348.363ZM165.969 347.355C166.984 347.355 167.883 347.125 168.664 346.664C169.445 346.203 170.051 345.57 170.48 344.766C170.91 343.961 171.125 343.062 171.125 342.07C171.125 341.023 170.898 340.098 170.445 339.293C170 338.488 169.383 337.867 168.594 337.43C167.812 336.992 166.938 336.773 165.969 336.773C164.945 336.773 164.039 337.008 163.25 337.477C162.469 337.938 161.863 338.57 161.434 339.375C161.012 340.18 160.801 341.078 160.801 342.07C160.801 343.117 161.023 344.043 161.469 344.848C161.922 345.645 162.539 346.262 163.32 346.699C164.109 347.137 164.992 347.355 165.969 347.355ZM181.672 348.363C180.625 348.363 179.711 348.141 178.93 347.695C178.148 347.242 177.547 346.625 177.125 345.844C176.711 345.055 176.504 344.16 176.504 343.16V336.129H177.559V343.148C177.559 343.984 177.738 344.723 178.098 345.363C178.465 345.996 178.961 346.484 179.586 346.828C180.211 347.172 180.906 347.344 181.672 347.344C182.477 347.344 183.191 347.16 183.816 346.793C184.441 346.426 184.926 345.926 185.27 345.293C185.613 344.652 185.785 343.938 185.785 343.148V336.129H186.852V343.16C186.852 344.215 186.629 345.137 186.184 345.926C185.738 346.707 185.121 347.309 184.332 347.73C183.551 348.152 182.664 348.363 181.672 348.363ZM191.961 336.129L192.02 338.859C192.27 338.234 192.625 337.691 193.086 337.23C193.555 336.762 194.09 336.402 194.691 336.152C195.301 335.895 195.938 335.766 196.602 335.766H197.293V336.82H196.414C195.594 336.82 194.852 337.023 194.188 337.43C193.523 337.828 193 338.359 192.617 339.023C192.242 339.688 192.055 340.402 192.055 341.168V348H191V336.129H191.961ZM204.992 348.363C203.781 348.363 202.711 348.09 201.781 347.543C200.859 346.988 200.145 346.234 199.637 345.281C199.137 344.32 198.887 343.25 198.887 342.07C198.887 340.812 199.152 339.707 199.684 338.754C200.223 337.801 200.953 337.066 201.875 336.551C202.805 336.027 203.844 335.766 204.992 335.766C206.234 335.766 207.316 336.07 208.238 336.68C209.168 337.281 209.852 338.09 210.289 339.105L210.336 336.129H211.309V348H210.605L210.359 345.105C209.891 346.105 209.188 346.898 208.25 347.484C207.312 348.07 206.227 348.363 204.992 348.363ZM205.109 347.355C206.125 347.355 207.023 347.125 207.805 346.664C208.586 346.203 209.191 345.57 209.621 344.766C210.051 343.961 210.266 343.062 210.266 342.07C210.266 341.023 210.039 340.098 209.586 339.293C209.141 338.488 208.523 337.867 207.734 337.43C206.953 336.992 206.078 336.773 205.109 336.773C204.086 336.773 203.18 337.008 202.391 337.477C201.609 337.938 201.004 338.57 200.574 339.375C200.152 340.18 199.941 341.078 199.941 342.07C199.941 343.117 200.164 344.043 200.609 344.848C201.062 345.645 201.68 346.262 202.461 346.699C203.25 347.137 204.133 347.355 205.109 347.355ZM215.375 352.23C216.117 352.23 216.707 352.105 217.145 351.855C217.582 351.613 217.914 351.211 218.141 350.648L219.219 348.059L213.992 336.129H215.176L219.441 345.926L219.723 346.746L219.992 345.926L223.906 336.129H225.09L219.148 350.895C218.828 351.684 218.383 352.258 217.812 352.617C217.242 352.977 216.484 353.156 215.539 353.156H214.73V352.23H215.375ZM236.199 353.121C234.707 353.121 233.398 352.852 232.273 352.312C231.156 351.773 230.293 351.035 229.684 350.098C229.074 349.168 228.77 348.121 228.77 346.957V336.809C228.77 335.59 229.09 334.516 229.73 333.586C230.371 332.656 231.254 331.938 232.379 331.43C233.504 330.914 234.777 330.656 236.199 330.656C237.66 330.656 238.949 330.918 240.066 331.441C241.191 331.965 242.062 332.695 242.68 333.633C243.305 334.562 243.617 335.621 243.617 336.809V348H243.031L242.82 345.539C242.422 346.406 241.812 347.094 240.992 347.602C240.18 348.109 239.234 348.363 238.156 348.363C237.102 348.363 236.172 348.125 235.367 347.648C234.57 347.172 233.953 346.52 233.516 345.691C233.078 344.863 232.859 343.938 232.859 342.914C232.859 341.828 233.09 340.871 233.551 340.043C234.012 339.215 234.645 338.578 235.449 338.133C236.262 337.68 237.164 337.453 238.156 337.453C239.234 337.453 240.168 337.715 240.957 338.238C241.746 338.754 242.332 339.414 242.715 340.219V336.809C242.715 335.762 242.43 334.836 241.859 334.031C241.289 333.227 240.508 332.605 239.516 332.168C238.523 331.73 237.418 331.512 236.199 331.512C234.902 331.512 233.758 331.742 232.766 332.203C231.781 332.664 231.02 333.297 230.48 334.102C229.949 334.906 229.684 335.809 229.684 336.809V346.957C229.684 348.004 229.965 348.93 230.527 349.734C231.098 350.539 231.875 351.16 232.859 351.598C233.852 352.043 234.965 352.266 236.199 352.266H242.703V353.121H236.199ZM238.25 347.473C239.133 347.473 239.91 347.273 240.582 346.875C241.262 346.477 241.785 345.93 242.152 345.234C242.52 344.539 242.703 343.766 242.703 342.914C242.703 342.008 242.508 341.211 242.117 340.523C241.727 339.828 241.191 339.293 240.512 338.918C239.84 338.543 239.086 338.355 238.25 338.355C237.367 338.355 236.586 338.555 235.906 338.953C235.234 339.344 234.715 339.887 234.348 340.582C233.98 341.277 233.797 342.055 233.797 342.914C233.797 343.812 233.992 344.609 234.383 345.305C234.773 345.992 235.309 346.527 235.988 346.91C236.668 347.285 237.422 347.473 238.25 347.473ZM252.887 348.363C251.715 348.363 250.688 348.137 249.805 347.684C248.93 347.23 248.27 346.535 247.824 345.598L248.844 345.27C249.219 345.996 249.766 346.543 250.484 346.91C251.211 347.277 252.016 347.461 252.898 347.461C253.672 347.461 254.336 347.34 254.891 347.098C255.445 346.848 255.863 346.527 256.145 346.137C256.426 345.746 256.566 345.344 256.566 344.93C256.559 344.281 256.34 343.766 255.91 343.383C255.488 342.992 254.848 342.711 253.988 342.539L251.293 341.988C250.238 341.777 249.461 341.441 248.961 340.98C248.461 340.512 248.211 339.871 248.211 339.059C248.211 338.457 248.379 337.91 248.715 337.418C249.059 336.918 249.578 336.52 250.273 336.223C250.977 335.918 251.844 335.766 252.875 335.766C253.945 335.766 254.855 335.969 255.605 336.375C256.363 336.781 256.965 337.406 257.41 338.25L256.402 338.566C255.723 337.301 254.559 336.668 252.91 336.668C252.105 336.668 251.434 336.777 250.895 336.996C250.355 337.215 249.957 337.508 249.699 337.875C249.441 338.234 249.312 338.629 249.312 339.059C249.312 339.629 249.5 340.078 249.875 340.406C250.258 340.727 250.871 340.973 251.715 341.145L254.375 341.684C255.492 341.902 256.32 342.27 256.859 342.785C257.398 343.293 257.668 344.008 257.668 344.93C257.668 345.531 257.492 346.094 257.141 346.617C256.789 347.141 256.254 347.562 255.535 347.883C254.816 348.203 253.934 348.363 252.887 348.363ZM261.055 331.02H262.109V341.578L269.117 336.129H270.664L263.188 341.93L271.016 348H269.387L262.109 342.387V348H261.055V331.02ZM273.172 352.23C273.914 352.23 274.504 352.105 274.941 351.855C275.379 351.613 275.711 351.211 275.938 350.648L277.016 348.059L271.789 336.129H272.973L277.238 345.926L277.52 346.746L277.789 345.926L281.703 336.129H282.887L276.945 350.895C276.625 351.684 276.18 352.258 275.609 352.617C275.039 352.977 274.281 353.156 273.336 353.156H272.527V352.23H273.172ZM286.66 336.129L286.707 338.859C286.957 338.25 287.312 337.711 287.773 337.242C288.234 336.773 288.77 336.41 289.379 336.152C289.988 335.895 290.625 335.766 291.289 335.766C292.234 335.766 293.066 335.984 293.785 336.422C294.504 336.852 295.059 337.438 295.449 338.18C295.848 338.922 296.047 339.742 296.047 340.641V348H294.992V340.664C294.992 339.93 294.816 339.266 294.465 338.672C294.121 338.078 293.652 337.617 293.059 337.289C292.465 336.953 291.816 336.785 291.113 336.785C290.301 336.785 289.559 336.984 288.887 337.383C288.223 337.781 287.699 338.312 287.316 338.977C286.941 339.641 286.754 340.352 286.754 341.109V348H285.688V336.129H286.66ZM305.527 348.363C304.316 348.363 303.238 348.094 302.293 347.555C301.355 347.008 300.625 346.258 300.102 345.305C299.586 344.344 299.328 343.266 299.328 342.07C299.328 340.82 299.598 339.719 300.137 338.766C300.684 337.805 301.426 337.066 302.363 336.551C303.309 336.027 304.363 335.766 305.527 335.766C306.637 335.766 307.641 336 308.539 336.469C309.445 336.93 310.164 337.609 310.695 338.508C311.227 339.398 311.492 340.461 311.492 341.695C311.492 341.914 311.484 342.109 311.469 342.281H300.418C300.426 343.312 300.652 344.223 301.098 345.012C301.551 345.793 302.164 346.398 302.938 346.828C303.711 347.25 304.578 347.461 305.539 347.461C306.57 347.461 307.477 347.227 308.258 346.758C309.039 346.281 309.645 345.633 310.074 344.812L311.023 345.223C310.539 346.176 309.812 346.938 308.844 347.508C307.875 348.078 306.77 348.363 305.527 348.363ZM310.391 341.461C310.367 340.539 310.152 339.715 309.746 338.988C309.34 338.262 308.77 337.695 308.035 337.289C307.309 336.875 306.473 336.668 305.527 336.668C304.574 336.668 303.723 336.875 302.973 337.289C302.223 337.703 301.629 338.273 301.191 339C300.754 339.727 300.5 340.547 300.43 341.461H310.391ZM319.145 348C318.496 348 317.926 347.867 317.434 347.602C316.949 347.328 316.574 346.949 316.309 346.465C316.051 345.98 315.922 345.426 315.922 344.801V337.055H313.355V336.129H315.934L316.168 333.234H316.977V336.129H320.41V337.055H316.977V344.801C316.977 345.254 317.074 345.652 317.27 345.996C317.465 346.34 317.73 346.605 318.066 346.793C318.41 346.98 318.797 347.074 319.227 347.074H320.41V348H319.145ZM323.352 348.352C323.07 348.352 322.84 348.262 322.66 348.082C322.488 347.91 322.402 347.688 322.402 347.414C322.402 347.148 322.492 346.93 322.672 346.758C322.852 346.578 323.078 346.488 323.352 346.488C323.625 346.488 323.848 346.578 324.02 346.758C324.199 346.93 324.289 347.148 324.289 347.414C324.289 347.688 324.203 347.91 324.031 348.082C323.859 348.262 323.633 348.352 323.352 348.352ZM333.898 348.363C332.656 348.363 331.566 348.07 330.629 347.484C329.691 346.898 328.988 346.105 328.52 345.105L328.285 348H327.582V331.02H328.637V339.094C329.082 338.07 329.758 337.262 330.664 336.668C331.578 336.066 332.656 335.766 333.898 335.766C335.117 335.766 336.188 336.043 337.109 336.598C338.039 337.145 338.754 337.898 339.254 338.859C339.754 339.812 340.004 340.883 340.004 342.07C340.004 343.32 339.734 344.422 339.195 345.375C338.664 346.328 337.934 347.066 337.004 347.59C336.082 348.105 335.047 348.363 333.898 348.363ZM333.781 347.355C334.805 347.355 335.707 347.125 336.488 346.664C337.27 346.203 337.871 345.57 338.293 344.766C338.723 343.961 338.938 343.062 338.938 342.07C338.938 341.023 338.711 340.098 338.258 339.293C337.812 338.488 337.195 337.867 336.406 337.43C335.625 336.992 334.75 336.773 333.781 336.773C332.758 336.773 331.852 337.008 331.062 337.477C330.281 337.938 329.676 338.57 329.246 339.375C328.824 340.18 328.613 341.078 328.613 342.07C328.613 343.117 328.836 344.043 329.281 344.848C329.734 345.645 330.352 346.262 331.133 346.699C331.922 347.137 332.805 347.355 333.781 347.355ZM348.887 348.363C347.676 348.363 346.598 348.094 345.652 347.555C344.715 347.008 343.984 346.258 343.461 345.305C342.945 344.344 342.688 343.266 342.688 342.07C342.688 340.82 342.957 339.719 343.496 338.766C344.043 337.805 344.785 337.066 345.723 336.551C346.668 336.027 347.723 335.766 348.887 335.766C349.996 335.766 351 336 351.898 336.469C352.805 336.93 353.523 337.609 354.055 338.508C354.586 339.398 354.852 340.461 354.852 341.695C354.852 341.914 354.844 342.109 354.828 342.281H343.777C343.785 343.312 344.012 344.223 344.457 345.012C344.91 345.793 345.523 346.398 346.297 346.828C347.07 347.25 347.938 347.461 348.898 347.461C349.93 347.461 350.836 347.227 351.617 346.758C352.398 346.281 353.004 345.633 353.434 344.812L354.383 345.223C353.898 346.176 353.172 346.938 352.203 347.508C351.234 348.078 350.129 348.363 348.887 348.363ZM353.75 341.461C353.727 340.539 353.512 339.715 353.105 338.988C352.699 338.262 352.129 337.695 351.395 337.289C350.668 336.875 349.832 336.668 348.887 336.668C347.934 336.668 347.082 336.875 346.332 337.289C345.582 337.703 344.988 338.273 344.551 339C344.113 339.727 343.859 340.547 343.789 341.461H353.75Z" fill="white"/>
<g filter="url(#filter0_d)">
<path d="M16.3836 379.296L16.6868 404.958L416 400.497L411.351 6.99998L323.59 7.98062" stroke="white" stroke-width="13"/>
</g>
<defs>
<filter id="filter0_d" x="9.88428" y="0.427856" width="429.692" height="427.103" filterUnits="userSpaceOnUse" color-interpolation-filters="sRGB">
<feFlood flood-opacity="0" result="BackgroundImageFix"/>
<feColorMatrix in="SourceAlpha" type="matrix" values="0 0 0 0 0 0 0 0 0 0 0 0 0 0 0 0 0 0 127 0"/>
<feOffset dx="11" dy="10"/>
<feGaussianBlur stdDeviation="3"/>
<feColorMatrix type="matrix" values="0 0 0 0 0 0 0 0 0 0 0 0 0 0 0 0 0 0 0.25 0"/>
<feBlend mode="normal" in2="BackgroundImageFix" result="effect1_dropShadow"/>
<feBlend mode="normal" in="SourceGraphic" in2="effect1_dropShadow" result="shape"/>
</filter>
</defs>
</svg>
